<?xml version="1.0" encoding="iso-8859-1"?>
<!-- Generator: Adobe Illustrator 19.0.0, SVG Export Plug-In . SVG Version: 6.00 Build 0)  -->
<svg version="1.1" id="Capa_1" xmlns="http://www.w3.org/2000/svg" xmlns:xlink="http://www.w3.org/1999/xlink" x="0px" y="0px"
	 viewBox="0 0 490 490" style="enable-background:new 0 0 490 490;" xml:space="preserve">
<g>
	<g>
		<g>
			<polygon points="412.6,329.4 364.8,329.4 364.8,303.7 124.4,303.7 124.4,329.4 76.6,329.4 76.6,303.7 19.1,303.7 19.1,490 
				470.2,490 470.2,303.7 412.6,303.7 			"/>
			<path d="M359.7,98V9.7c0-5.4-4.3-9.7-9.7-9.7H139.2c-5.4,0-9.7,4.3-9.7,9.7V98H4.7v186.3H77V259h47.8v25.3h240.3V259H413v25.3
				h72.3V98H359.7z M148.9,19.4h190.9V98H148.9V19.4z"/>
		</g>
	</g>
</g>
<g>
</g>
<g>
</g>
<g>
</g>
<g>
</g>
<g>
</g>
<g>
</g>
<g>
</g>
<g>
</g>
<g>
</g>
<g>
</g>
<g>
</g>
<g>
</g>
<g>
</g>
<g>
</g>
<g>
</g>
</svg>
