<?xml version="1.0" encoding="iso-8859-1"?>
<!-- Generator: Adobe Illustrator 19.0.0, SVG Export Plug-In . SVG Version: 6.00 Build 0)  -->
<svg version="1.1" id="Layer_1" xmlns="http://www.w3.org/2000/svg" xmlns:xlink="http://www.w3.org/1999/xlink" x="0px" y="0px"
	 viewBox="0 0 511.573 511.573" style="enable-background:new 0 0 511.573 511.573;" xml:space="preserve">
<g transform="translate(1 1)">
	<path style="fill:#FECC00;" d="M434.088,152.173L434.088,152.173c-5.973-28.16-20.48-52.053-42.667-68.267
		c-107.52,39.253-102.4-68.267-102.4-68.267c-27.307-11.093-58.027-11.093-85.333,0c0,0-11.947,107.52-119.467,68.267
		c-22.187,16.213-36.693,40.107-42.667,67.413v0.853c56.32,56.32,56.32,165.547,0,221.867v0.853
		c5.12,27.307,20.48,51.2,42.667,67.413c0,0,118.613-41.813,162.133,59.733c43.52-101.547,145.067-59.733,145.067-59.733
		c22.187-16.213,36.693-40.107,42.667-67.413v-0.853C377.768,317.72,377.768,208.493,434.088,152.173"/>
	<path style="fill:#FFA800;" d="M451.154,152.173L451.154,152.173c-5.973-28.16-20.48-52.053-42.667-68.267
		c-4.267,1.707-8.533,2.56-11.947,4.267c19.627,16.213,32.427,38.4,37.547,63.147v0.853c-56.32,56.32-56.32,165.547,0,221.867v0.853
		c-5.12,24.747-18.773,47.787-38.4,64c7.68,1.707,12.8,3.413,12.8,3.413c22.187-16.213,36.693-40.107,42.667-67.413v-0.853
		C394.834,317.72,394.834,208.493,451.154,152.173"/>
	<path style="fill:#FFFFFF;" d="M41.554,374.04L41.554,374.04c5.973,28.16,20.48,52.053,42.667,68.267
		c4.267-1.707,8.533-2.56,11.947-4.267c-18.773-16.213-32.427-38.4-37.547-63.147v-0.853c56.32-56.32,56.32-165.547,0-221.867
		v-0.853c5.12-24.747,18.773-47.787,38.4-64c-7.68-1.707-12.8-3.413-12.8-3.413c-22.187,16.213-36.693,40.107-42.667,67.413v0.853
		C97.874,208.493,97.874,317.72,41.554,374.04"/>
	<g>
		<path style="fill:#FFE100;" d="M476.754,152.173L476.754,152.173c1.707-23.893-15.36-42.667-31.573-58.88
			c-5.973-5.973-15.36-7.68-23.04-5.973l0,0c19.627,16.213,32.427,38.4,37.547,63.147v0.853c-56.32,56.32-56.32,165.547,0,221.867
			v0.853c-5.12,24.747-18.773,47.787-38.4,64l0,0c8.533,1.707,17.92,0,23.893-5.973c16.213-15.36,32.427-36.693,31.573-58.027
			v-0.853C412.754,319.427,420.434,208.493,476.754,152.173"/>
		<path style="fill:#FFE100;" d="M246.354,441.453c-26.453-27.307-63.147-41.813-107.52-41.813c-17.92,0-34.133,2.56-45.227,5.12
			c-5.973-6.827-10.24-13.653-13.653-22.187c51.2-66.56,51.2-172.373,0-238.933c3.413-7.68,7.68-15.36,13.653-21.333
			c11.947,2.56,23.893,4.267,34.987,4.267l0,0c63.147,0,93.867-46.933,104.96-83.627c3.413-0.853,8.533-1.707,12.8-1.707
			c4.267,0,9.387,0,13.653,0.853c11.093,37.547,41.813,83.627,104.96,83.627c11.093,0,22.187-1.707,34.987-4.267
			c5.973,6.827,10.24,13.653,13.653,21.333c-51.2,66.56-51.2,172.373,0,238.933c-3.413,8.533-7.68,15.36-13.653,22.187
			c-11.947-2.56-27.307-5.12-45.227-5.12C309.501,399.64,272.808,414.147,246.354,441.453"/>
	</g>
	<path d="M246.354,510.573L246.354,510.573c-3.413,0-6.827-1.707-7.68-5.12c-39.253-93.013-146.773-56.32-151.893-54.613
		c-2.56,0.853-5.12,0-7.68-1.707c-23.893-17.92-40.107-43.52-46.08-72.533v-0.853c-0.853-2.56,0-5.973,2.56-7.68
		c25.6-25.6,40.107-64,40.107-104.96s-14.507-79.36-40.107-104.96c-1.707-1.707-2.56-5.12-2.56-7.68v-0.853
		C38.994,120.6,55.208,95,79.101,77.08c2.56-1.707,5.12-2.56,7.68-0.853c29.867,11.093,54.613,11.093,73.387-0.853
		c29.867-18.773,34.987-60.587,34.987-60.587c0-3.413,2.56-5.973,5.12-6.827c29.867-11.947,62.293-11.947,91.307,0
		c3.413,0.853,5.973,3.413,5.973,6.827c0,0,5.12,42.667,34.987,60.587c18.773,11.093,42.667,11.093,72.533,0.853
		c3.413-1.707,5.973-0.853,8.533,0.853c23.893,17.92,40.107,43.52,46.08,72.533v0.853c0.853,2.56,0,5.973-2.56,7.68
		c-52.907,52.907-52.907,157.013,0,209.92c1.707,1.707,2.56,5.12,2.56,7.68v0.853c-5.973,29.013-22.187,54.613-46.08,72.533
		c-2.56,1.707-5.12,2.56-7.68,0.853c-4.267-1.707-111.787-37.547-151.893,54.613C253.181,508.867,249.768,510.573,246.354,510.573z
		 M138.834,425.24c35.84,0,80.213,11.093,107.52,57.173c45.227-77.653,138.24-56.32,160.427-50.347
		c17.92-14.507,29.867-34.133,34.987-56.32c-55.467-59.733-55.467-167.253,0-226.987c-5.12-22.187-17.067-41.813-34.987-56.32
		c-33.28,11.093-61.44,10.24-83.627-3.413c-29.867-18.773-39.253-54.613-41.813-68.267c-23.04-7.68-46.933-7.68-69.973,0
		c-2.56,13.653-11.947,49.493-41.813,68.267c-22.187,13.653-50.347,14.507-83.627,3.413c-17.067,14.507-29.867,34.133-34.987,56.32
		c26.453,29.013,41.813,69.973,41.813,114.347S77.394,348.44,50.941,376.6c5.12,22.187,17.92,41.813,34.987,56.32
		C94.461,430.36,114.941,425.24,138.834,425.24z"/>
	<path d="M246.354,449.987c-2.56,0-4.267-0.853-5.973-2.56c-25.6-25.6-60.587-39.253-101.547-39.253
		c-14.507,0-29.013,1.707-43.52,5.12c-3.413,0.853-5.973,0-8.533-2.56c-6.827-7.68-11.947-15.36-15.36-24.747
		c-0.853-2.56-0.853-5.973,0.853-8.533c48.64-64,48.64-163.84,0-227.84c-1.707-2.56-2.56-5.973-0.853-8.533
		c3.413-8.533,8.533-17.067,14.507-23.893c1.707-2.56,5.12-3.413,8.533-2.56c11.093,2.56,22.187,4.267,32.427,4.267
		c65.707,0,89.6-54.613,97.28-77.653c0.853-3.413,3.413-5.12,6.827-5.973c10.24-1.707,20.48-1.707,30.72,0
		c3.413,0.853,5.973,2.56,6.827,5.973c6.827,23.04,30.72,77.653,97.28,77.653l0,0c10.24,0,21.333-1.707,32.427-4.267
		c3.413-0.853,5.973,0,8.533,2.56c5.973,6.827,11.093,15.36,14.507,23.893c0.853,2.56,0.853,5.973-0.853,8.533
		c-48.64,64-48.64,163.84,0,227.84c1.707,2.56,2.56,5.973,0.853,8.533c-3.413,9.387-8.533,17.067-15.36,24.747
		c-1.707,2.56-5.12,3.413-8.533,2.56c-14.507-3.413-29.013-5.12-43.52-5.12c-40.96,0-75.947,13.653-101.547,39.253
		C250.621,449.133,248.914,449.987,246.354,449.987z M138.834,391.107c42.667,0,79.36,12.8,107.52,38.4
		c28.16-24.747,64.853-38.4,107.52-38.4c13.653,0,28.16,1.707,42.667,4.267c2.56-3.413,5.12-7.68,7.68-11.947
		c-49.493-68.267-49.493-172.373,0-240.64c-1.707-4.267-4.267-7.68-6.827-11.093c-11.093,2.56-21.333,3.413-31.573,3.413l0,0
		c-74.24,0-102.4-59.733-111.787-84.48c-5.12-0.853-9.387-0.853-14.507,0c-8.533,25.6-37.547,84.48-111.787,84.48
		c-10.24,0-20.48-0.853-31.573-3.413c-2.56,3.413-5.12,6.827-6.827,11.093c49.493,68.267,49.493,172.373,0,240.64
		c1.707,4.267,4.267,7.68,7.68,11.947C110.674,392.813,125.181,391.107,138.834,391.107z"/>
	<path d="M297.554,220.44h-102.4c-5.12,0-8.533-3.413-8.533-8.533s3.413-8.533,8.533-8.533h102.4c5.12,0,8.533,3.413,8.533,8.533
		S302.674,220.44,297.554,220.44z"/>
	<path d="M297.554,263.107h-102.4c-5.12,0-8.533-3.413-8.533-8.533s3.413-8.533,8.533-8.533h102.4c5.12,0,8.533,3.413,8.533,8.533
		S302.674,263.107,297.554,263.107z"/>
	<path d="M297.554,305.773h-102.4c-5.12,0-8.533-3.413-8.533-8.533s3.413-8.533,8.533-8.533h102.4c5.12,0,8.533,3.413,8.533,8.533
		S302.674,305.773,297.554,305.773z"/>
	<path d="M254.888,160.707c0,5.12-3.413,8.533-8.533,8.533c-5.12,0-8.533-3.413-8.533-8.533c0-5.12,3.413-8.533,8.533-8.533
		C251.474,152.173,254.888,155.587,254.888,160.707"/>
	<path d="M254.888,348.44c0,5.12-3.413,8.533-8.533,8.533c-5.12,0-8.533-3.413-8.533-8.533c0-5.12,3.413-8.533,8.533-8.533
		C251.474,339.907,254.888,343.32,254.888,348.44"/>
</g>
<g>
</g>
<g>
</g>
<g>
</g>
<g>
</g>
<g>
</g>
<g>
</g>
<g>
</g>
<g>
</g>
<g>
</g>
<g>
</g>
<g>
</g>
<g>
</g>
<g>
</g>
<g>
</g>
<g>
</g>
</svg>
